<svg width="110" height="110" viewBox="0 0 110 110" fill="none" xmlns="http://www.w3.org/2000/svg">
<circle cx="55" cy="55" r="55" fill="white"/>
<path d="M80.375 26H40.5C38.4949 26 36.875 27.8552 36.875 30.1429V73.6429C36.875 74.7821 36.0639 75.7143 35.0625 75.7143C34.0611 75.7143 33.25 74.7821 33.25 73.6429V34.2857H29.625C27.6233 34.2857 26 36.1371 26 38.4286V75.7143C26 80.2908 29.2455 84 33.25 84H76.75C80.7545 84 84 80.2908 84 75.7143V30.1429C84 27.8552 82.3801 26 80.375 26ZM56.8125 75.7143H45.9375C44.9406 75.7143 44.125 74.7821 44.125 73.6429C44.125 72.5036 44.9406 71.5714 45.9375 71.5714H56.8125C57.8135 71.5714 58.625 72.4986 58.625 73.6429C58.625 74.7821 57.8094 75.7143 56.8125 75.7143ZM56.8125 63.2857H45.9375C44.9406 63.2857 44.125 62.3536 44.125 61.2143C44.125 60.075 44.9406 59.1429 45.9375 59.1429H56.8125C57.8094 59.1429 58.625 60.075 58.625 61.2143C58.625 62.3536 57.8094 63.2857 56.8125 63.2857ZM74.9375 75.7143H64.0625C63.0615 75.7143 62.25 74.7868 62.25 73.6429C62.25 72.4986 63.0615 71.5714 64.0625 71.5714H74.9375C75.9385 71.5714 76.75 72.4986 76.75 73.6429C76.75 74.7821 75.9344 75.7143 74.9375 75.7143ZM74.9375 63.2857H64.0625C63.0656 63.2857 62.25 62.3536 62.25 61.2143C62.25 60.075 63.0656 59.1429 64.0625 59.1429H74.9375C75.9344 59.1429 76.75 60.075 76.75 61.2143C76.75 62.3536 75.9344 63.2857 74.9375 63.2857ZM76.75 48.7857C76.75 49.925 75.9344 50.8571 74.9375 50.8571H45.9375C44.9406 50.8571 44.125 49.925 44.125 48.7857V36.3571C44.125 35.2179 44.9406 34.2857 45.9375 34.2857H74.9375C75.9344 34.2857 76.75 35.2179 76.75 36.3571V48.7857Z" fill="black"/>
</svg>
